<svg width="33" height="33" viewBox="0 0 33 33" fill="none" xmlns="http://www.w3.org/2000/svg">
<g clip-path="url(#clip0_370_682)">
<path d="M16.5 2.75C24.0941 2.75 30.25 8.90588 30.25 16.5C30.25 24.0941 24.0941 30.25 16.5 30.25H5.5C4.77065 30.25 4.07118 29.9603 3.55546 29.4445C3.03973 28.9288 2.75 28.2293 2.75 27.5V16.5C2.75 8.90588 8.90588 2.75 16.5 2.75ZM16.5 19.25H12.375C12.0103 19.25 11.6606 19.3949 11.4027 19.6527C11.1449 19.9106 11 20.2603 11 20.625C11 20.9897 11.1449 21.3394 11.4027 21.5973C11.6606 21.8551 12.0103 22 12.375 22H16.5C16.8647 22 17.2144 21.8551 17.4723 21.5973C17.7301 21.3394 17.875 20.9897 17.875 20.625C17.875 20.2603 17.7301 19.9106 17.4723 19.6527C17.2144 19.3949 16.8647 19.25 16.5 19.25ZM20.625 13.75H12.375C12.0245 13.7504 11.6875 13.8846 11.4326 14.1252C11.1778 14.3657 11.0244 14.6946 11.0039 15.0444C10.9833 15.3943 11.0972 15.7388 11.3221 16.0075C11.5471 16.2763 11.8661 16.449 12.2141 16.4904L12.375 16.5H20.625C20.9755 16.4996 21.3125 16.3654 21.5674 16.1248C21.8222 15.8843 21.9756 15.5554 21.9961 15.2056C22.0167 14.8557 21.9028 14.5112 21.6779 14.2425C21.4529 13.9737 21.1339 13.801 20.7859 13.7596L20.625 13.75Z" fill="#D79F9F"/>
</g>
<defs>
<clipPath id="clip0_370_682">
<rect width="33" height="33" fill="white"/>
</clipPath>
</defs>
</svg>
