<svg width="6" height="6" viewBox="0 0 6 6" fill="none" xmlns="http://www.w3.org/2000/svg">
<path d="M3 5.5C2.65417 5.5 2.32917 5.43433 2.025 5.303C1.72083 5.17167 1.45625 4.99358 1.23125 4.76875C1.00625 4.54375 0.828167 4.27917 0.697 3.975C0.565833 3.67083 0.500167 3.34583 0.5 3C0.5 2.65417 0.565667 2.32917 0.697 2.025C0.828333 1.72083 1.00642 1.45625 1.23125 1.23125C1.45625 1.00625 1.72083 0.828167 2.025 0.697C2.32917 0.565833 2.65417 0.500167 3 0.5C3.34583 0.5 3.67083 0.565667 3.975 0.697C4.27917 0.828333 4.54375 1.00642 4.76875 1.23125C4.99375 1.45625 5.17192 1.72083 5.30325 2.025C5.43458 2.32917 5.50017 2.65417 5.5 3C5.5 3.34583 5.43433 3.67083 5.303 3.975C5.17167 4.27917 4.99358 4.54375 4.76875 4.76875C4.54375 4.99375 4.27917 5.17192 3.975 5.30325C3.67083 5.43458 3.34583 5.50017 3 5.5Z" fill="#D79F9F"/>
</svg>
