<svg width="40" height="40" viewBox="0 0 40 40" fill="none" xmlns="http://www.w3.org/2000/svg">
<path d="M35 20V31.6667C35 32.5507 34.6488 33.3986 34.0237 34.0237C33.3986 34.6488 32.5507 35 31.6667 35H8.33333C7.44928 35 6.60143 34.6488 5.97631 34.0237C5.35119 33.3986 5 32.5507 5 31.6667V8.33334C5 7.44929 5.35119 6.60144 5.97631 5.97632C6.60143 5.3512 7.44928 5.00001 8.33333 5.00001H20M26.6667 8.33334H36.6667M31.6667 3.33334V13.3333" stroke="#D79F9F" stroke-width="2" stroke-linecap="round" stroke-linejoin="round"/>
<path d="M14.9998 18.3334C16.8408 18.3334 18.3332 16.841 18.3332 15C18.3332 13.1591 16.8408 11.6667 14.9998 11.6667C13.1589 11.6667 11.6665 13.1591 11.6665 15C11.6665 16.841 13.1589 18.3334 14.9998 18.3334Z" stroke="#D79F9F" stroke-width="2" stroke-linecap="round" stroke-linejoin="round"/>
<path d="M35 25L29.8567 19.8567C29.2316 19.2318 28.3839 18.8807 27.5 18.8807C26.6161 18.8807 25.7684 19.2318 25.1433 19.8567L10 35" stroke="#D79F9F" stroke-width="2" stroke-linecap="round" stroke-linejoin="round"/>
</svg>
