<svg width="311" height="92" viewBox="0 0 311 92" fill="none" xmlns="http://www.w3.org/2000/svg">
<path d="M45.8295 59.4545C44.0303 59.4545 42.5246 58.9574 41.3125 57.9631C40.1098 56.9688 39.2623 55.6193 38.7699 53.9148C38.2775 52.2008 38.2064 50.2784 38.5568 48.1477C38.9072 45.9981 39.6174 44.071 40.6875 42.3665C41.7576 40.6619 43.0644 39.3172 44.608 38.3324C46.161 37.3381 47.8182 36.8409 49.5795 36.8409C50.9053 36.8409 52.0653 37.125 53.0597 37.6932C54.054 38.2519 54.8305 39.0379 55.3892 40.0511C55.9479 41.0549 56.2273 42.2197 56.2273 43.5455H55.2614C55.2614 41.7652 54.7405 40.3542 53.6989 39.3125C52.6667 38.2708 51.2936 37.75 49.5795 37.75C47.9792 37.75 46.4688 38.2045 45.0483 39.1136C43.6373 40.0133 42.4347 41.2443 41.4403 42.8068C40.4555 44.3693 39.7973 46.1496 39.4659 48.1477C39.1439 50.0795 39.1866 51.8314 39.5938 53.4034C40.0104 54.9754 40.7491 56.2254 41.8097 57.1534C42.8703 58.0814 44.2102 58.5455 45.8295 58.5455C47.0133 58.5455 48.1449 58.2992 49.2244 57.8068C50.304 57.3144 51.2509 56.6231 52.0653 55.733C52.8797 54.8428 53.4716 53.8106 53.8409 52.6364H54.8068C54.3617 54.0284 53.6847 55.2358 52.7756 56.2585C51.8665 57.2718 50.8106 58.0578 49.608 58.6165C48.4148 59.1752 47.1553 59.4545 45.8295 59.4545ZM63.5071 44.3409L61.0639 59H60.1548L64.9844 29.9091H65.8935L64.1321 40.6477H64.2457C64.9276 39.5114 65.9124 38.6023 67.2003 37.9205C68.4976 37.2386 69.8991 36.8977 71.4048 36.8977C72.8632 36.8977 74.099 37.215 75.1122 37.8494C76.1255 38.4839 76.8546 39.3598 77.2997 40.4773C77.7448 41.5947 77.8442 42.8826 77.598 44.3409L75.1548 59H74.2457L76.6889 44.3409C77.0014 42.4091 76.67 40.8371 75.6946 39.625C74.7287 38.4129 73.2798 37.8068 71.348 37.8068C70.0601 37.8068 68.8575 38.0862 67.7401 38.6449C66.6321 39.2036 65.6993 39.9754 64.9418 40.9602C64.1937 41.9451 63.7154 43.072 63.5071 44.3409ZM91.0142 59.4545C89.1013 59.4545 87.5152 58.9574 86.2557 57.9631C84.9962 56.9688 84.1155 55.6193 83.6136 53.9148C83.1117 52.2102 83.0407 50.2879 83.4006 48.1477C83.7604 46.0076 84.4754 44.0852 85.5455 42.3807C86.6155 40.6761 87.9129 39.3267 89.4375 38.3324C90.9621 37.3381 92.5862 36.8409 94.3097 36.8409C95.5786 36.8409 96.7055 37.1155 97.6903 37.6648C98.6847 38.2045 99.5038 38.9527 100.148 39.9091C100.801 40.8561 101.251 41.9545 101.497 43.2045C101.743 44.4451 101.753 45.7708 101.526 47.1818L101.355 48.0909H83.8551L84.0256 47.1818H100.616C100.901 45.4394 100.811 43.858 100.347 42.4375C99.892 41.0076 99.1392 39.8712 98.0881 39.0284C97.0464 38.1761 95.7869 37.75 94.3097 37.75C92.8134 37.75 91.3741 38.1951 89.9915 39.0852C88.6089 39.9754 87.4157 41.1875 86.4119 42.7216C85.4081 44.2557 84.7263 45.9886 84.3665 47.9205L84.3097 47.9773C83.9877 49.8902 84.0208 51.6468 84.4091 53.2472C84.7973 54.8475 85.5455 56.1307 86.6534 57.0966C87.7614 58.0625 89.2339 58.5455 91.071 58.5455C92.3968 58.5455 93.5616 58.3087 94.5653 57.8352C95.5786 57.3617 96.4214 56.8172 97.0938 56.2017C97.7756 55.5862 98.2869 55.0606 98.6278 54.625L99.2528 55.1364C98.8551 55.6856 98.2822 56.2964 97.5341 56.9688C96.786 57.6411 95.8674 58.2235 94.7784 58.7159C93.6894 59.2083 92.4347 59.4545 91.0142 59.4545ZM105.975 59L109.612 37.1818H110.521L109.952 40.6477H110.066C110.748 39.5114 111.733 38.6023 113.021 37.9205C114.318 37.2386 115.719 36.8977 117.225 36.8977C117.339 36.8977 117.415 36.8977 117.452 36.8977C117.49 36.8977 117.566 36.8977 117.68 36.8977L117.509 37.8068C117.396 37.8068 117.32 37.8068 117.282 37.8068C117.244 37.8068 117.168 37.8068 117.055 37.8068C115.767 37.8068 114.574 38.0862 113.475 38.6449C112.386 39.2036 111.472 39.9754 110.734 40.9602C110.004 41.9451 109.536 43.072 109.327 44.3409L106.884 59H105.975ZM118.983 59L122.619 37.1818H123.528L122.96 40.6477H123.074C123.756 39.5114 124.741 38.6023 126.028 37.9205C127.326 37.2386 128.727 36.8977 130.233 36.8977C130.347 36.8977 130.422 36.8977 130.46 36.8977C130.498 36.8977 130.574 36.8977 130.688 36.8977L130.517 37.8068C130.403 37.8068 130.328 37.8068 130.29 37.8068C130.252 37.8068 130.176 37.8068 130.062 37.8068C128.775 37.8068 127.581 38.0862 126.483 38.6449C125.394 39.2036 124.48 39.9754 123.741 40.9602C123.012 41.9451 122.544 43.072 122.335 44.3409L119.892 59H118.983ZM132.286 67.1818C131.916 67.1818 131.533 67.1297 131.135 67.0256C130.747 66.9309 130.354 66.7936 129.956 66.6136L130.411 65.8182C131.244 66.2254 132.054 66.3627 132.839 66.2301C133.635 66.107 134.383 65.733 135.084 65.108C135.785 64.4924 136.414 63.6496 136.973 62.5795L138.678 59.3409L134.473 37.1818H135.382L139.331 57.8636H139.445L150.268 37.1818H151.291L137.797 62.9773C137.314 63.8958 136.774 64.6676 136.178 65.2926C135.59 65.9176 134.965 66.3864 134.303 66.6989C133.64 67.0208 132.967 67.1818 132.286 67.1818ZM168.156 44.3409L165.712 59H164.803L169.633 29.9091H170.542L168.781 40.6477H168.894C169.576 39.5114 170.561 38.6023 171.849 37.9205C173.146 37.2386 174.548 36.8977 176.053 36.8977C177.512 36.8977 178.747 37.215 179.761 37.8494C180.774 38.4839 181.503 39.3598 181.948 40.4773C182.393 41.5947 182.493 42.8826 182.246 44.3409L179.803 59H178.894L181.337 44.3409C181.65 42.4091 181.318 40.8371 180.343 39.625C179.377 38.4129 177.928 37.8068 175.996 37.8068C174.709 37.8068 173.506 38.0862 172.388 38.6449C171.281 39.2036 170.348 39.9754 169.59 40.9602C168.842 41.9451 168.364 43.072 168.156 44.3409ZM195.265 59.4545C193.541 59.4545 192.074 58.9574 190.862 57.9631C189.659 56.9688 188.797 55.6098 188.276 53.8864C187.765 52.1629 187.689 50.2121 188.049 48.0341C188.409 45.9129 189.119 44.0095 190.18 42.3239C191.25 40.6288 192.538 39.2936 194.043 38.3182C195.558 37.3333 197.159 36.8409 198.844 36.8409C200.587 36.8409 202.059 37.3428 203.262 38.3466C204.474 39.3504 205.336 40.714 205.847 42.4375C206.368 44.161 206.458 46.1023 206.117 48.2614C205.757 50.3826 205.042 52.2907 203.972 53.9858C202.902 55.6714 201.61 57.0066 200.094 57.9915C198.579 58.9669 196.969 59.4545 195.265 59.4545ZM195.265 58.5455C196.837 58.5455 198.319 58.0909 199.711 57.1818C201.103 56.2633 202.287 55.0133 203.262 53.4318C204.237 51.8409 204.886 50.0417 205.208 48.0341C205.53 46.0833 205.469 44.3314 205.023 42.7784C204.578 41.2254 203.826 39.9991 202.765 39.0994C201.704 38.1998 200.416 37.75 198.901 37.75C197.348 37.75 195.876 38.214 194.484 39.142C193.092 40.0606 191.903 41.3153 190.918 42.9062C189.933 44.4877 189.28 46.2727 188.958 48.2614C188.617 50.2121 188.669 51.964 189.114 53.517C189.569 55.0701 190.326 56.2964 191.387 57.196C192.457 58.0956 193.75 58.5455 195.265 58.5455ZM225.986 51.8409L228.429 37.1818H229.338L225.702 59H224.793L225.361 55.5341H225.247C224.565 56.6705 223.576 57.5795 222.278 58.2614C220.991 58.9432 219.594 59.2841 218.088 59.2841C216.63 59.2841 215.394 58.9669 214.381 58.3324C213.367 57.6979 212.638 56.822 212.193 55.7045C211.748 54.5871 211.649 53.2992 211.895 51.8409L214.338 37.1818H215.247L212.804 51.8409C212.491 53.7727 212.837 55.3447 213.841 56.5568C214.854 57.7689 216.327 58.375 218.259 58.375C219.546 58.375 220.735 58.0956 221.824 57.5369C222.922 56.9782 223.836 56.2064 224.565 55.2216C225.304 54.2367 225.777 53.1098 225.986 51.8409ZM249.345 41.7841L248.436 41.9545C248.285 41.0076 248 40.2263 247.584 39.6108C247.167 38.9858 246.613 38.5218 245.922 38.2188C245.24 37.9062 244.411 37.75 243.436 37.75C241.656 37.75 240.145 38.2093 238.905 39.1278C237.664 40.0464 236.921 41.2348 236.675 42.6932C236.495 43.8201 236.698 44.7576 237.286 45.5057C237.882 46.2538 238.891 46.8125 240.311 47.1818L243.607 48.0341C245.141 48.4318 246.239 49.1231 246.902 50.108C247.574 51.0833 247.802 52.2481 247.584 53.6023C247.394 54.786 246.921 55.8182 246.163 56.6989C245.406 57.5701 244.445 58.2472 243.28 58.7301C242.125 59.2131 240.832 59.4545 239.402 59.4545C237.451 59.4545 235.931 58.9763 234.842 58.0199C233.763 57.0634 233.18 55.7045 233.095 53.9432L234.004 53.8295C234.061 55.3636 234.549 56.5331 235.467 57.3381C236.386 58.143 237.697 58.5455 239.402 58.5455C241.334 58.5455 242.977 58.0672 244.331 57.1108C245.685 56.1449 246.485 54.8996 246.732 53.375C246.911 52.2576 246.713 51.3248 246.135 50.5767C245.557 49.8286 244.601 49.2841 243.266 48.9432L240.027 48.0909C238.408 47.6648 237.233 46.964 236.504 45.9886C235.785 45.0133 235.538 43.839 235.766 42.4659C235.955 41.339 236.4 40.3542 237.101 39.5114C237.802 38.6686 238.692 38.0152 239.771 37.5511C240.86 37.0777 242.063 36.8409 243.379 36.8409C245.093 36.8409 246.452 37.2623 247.456 38.1051C248.46 38.9384 249.089 40.1648 249.345 41.7841ZM261.288 59.4545C259.375 59.4545 257.789 58.9574 256.529 57.9631C255.27 56.9688 254.389 55.6193 253.887 53.9148C253.385 52.2102 253.314 50.2879 253.674 48.1477C254.034 46.0076 254.749 44.0852 255.819 42.3807C256.889 40.6761 258.186 39.3267 259.711 38.3324C261.236 37.3381 262.86 36.8409 264.583 36.8409C265.852 36.8409 266.979 37.1155 267.964 37.6648C268.958 38.2045 269.777 38.9527 270.421 39.9091C271.075 40.8561 271.524 41.9545 271.771 43.2045C272.017 44.4451 272.026 45.7708 271.799 47.1818L271.629 48.0909H254.129L254.299 47.1818H270.89C271.174 45.4394 271.084 43.858 270.62 42.4375C270.165 41.0076 269.413 39.8712 268.362 39.0284C267.32 38.1761 266.06 37.75 264.583 37.75C263.087 37.75 261.647 38.1951 260.265 39.0852C258.882 39.9754 257.689 41.1875 256.685 42.7216C255.682 44.2557 255 45.9886 254.64 47.9205L254.583 47.9773C254.261 49.8902 254.294 51.6468 254.683 53.2472C255.071 54.8475 255.819 56.1307 256.927 57.0966C258.035 58.0625 259.507 58.5455 261.344 58.5455C262.67 58.5455 263.835 58.3087 264.839 57.8352C265.852 57.3617 266.695 56.8172 267.367 56.2017C268.049 55.5862 268.56 55.0606 268.901 54.625L269.526 55.1364C269.129 55.6856 268.556 56.2964 267.808 56.9688C267.059 57.6411 266.141 58.2235 265.052 58.7159C263.963 59.2083 262.708 59.4545 261.288 59.4545Z" fill="black"/>
<path d="M299.264 37L299.157 38.5233C298.89 42.3239 297.004 45.7782 294 47.9666V47.9666" stroke="black"/>
<path d="M299 36.4859L300.207 37.356C303.351 39.6214 305.17 43.2294 305.07 47V47" stroke="black"/>
<g filter="url(#filter0_i_221_718)">
<circle cx="293.5" cy="50.5" r="5.5" fill="#DE3163"/>
</g>
<g filter="url(#filter1_i_221_718)">
<circle cx="305.5" cy="51.5" r="5.5" fill="#DE3163"/>
</g>
<path d="M17.4405 27.658H20.1565V28.078H17.4405V27.658ZM15.2985 25.46H15.6905V26.44C15.6905 28.778 14.3605 31.158 12.7365 32.194L12.4145 31.83C13.9965 30.906 15.2985 28.596 15.2985 26.44V25.46ZM15.3545 25.46H15.7465V26.44C15.7465 28.512 17.0905 30.696 18.6585 31.578L18.3505 31.942C16.7265 30.962 15.3545 28.694 15.3545 26.44V25.46ZM12.6245 25.068H18.4065V25.488H12.6245V25.068ZM15.2985 23.052H15.7605V25.32H15.2985V23.052ZM22.2845 22.576H22.7465V34.938H22.2845V22.576ZM19.8345 22.954H20.2825V34.224H19.8345V22.954ZM21.9065 39.576H22.3545V51.938H21.9065V39.576ZM13.1565 48.424H14.1085C16.0545 48.424 17.9865 48.34 20.4225 47.962L20.4785 48.368C18.0005 48.746 16.0965 48.844 14.1085 48.844H13.1565V48.424ZM13.1145 40.836H18.7005V44.868H13.6045V48.592H13.1565V44.448H18.2525V41.256H13.1145V40.836ZM15.9845 57.64H16.3765V58.788C16.3765 60.916 14.6685 62.554 12.9045 63.254L12.6665 62.862C14.3045 62.274 15.9845 60.706 15.9845 58.788V57.64ZM16.0545 57.64H16.4465V58.788C16.4465 60.622 18.1685 62.092 19.8065 62.652L19.5685 63.03C17.8045 62.386 16.0545 60.832 16.0545 58.788V57.64ZM12.8065 57.542H19.6105V57.948H12.8065V57.542ZM21.9065 56.576H22.3685V63.254H21.9065V56.576ZM14.6825 63.94H15.1305V65.774H21.9205V63.94H22.3685V68.742H14.6825V63.94ZM15.1305 66.194V68.322H21.9205V66.194H15.1305Z" fill="black"/>
<defs>
<filter id="filter0_i_221_718" x="288" y="45" width="11" height="15" filterUnits="userSpaceOnUse" color-interpolation-filters="sRGB">
<feFlood flood-opacity="0" result="BackgroundImageFix"/>
<feBlend mode="normal" in="SourceGraphic" in2="BackgroundImageFix" result="shape"/>
<feColorMatrix in="SourceAlpha" type="matrix" values="0 0 0 0 0 0 0 0 0 0 0 0 0 0 0 0 0 0 127 0" result="hardAlpha"/>
<feOffset dy="4"/>
<feGaussianBlur stdDeviation="2"/>
<feComposite in2="hardAlpha" operator="arithmetic" k2="-1" k3="1"/>
<feColorMatrix type="matrix" values="0 0 0 0 1 0 0 0 0 0 0 0 0 0 0 0 0 0 0.25 0"/>
<feBlend mode="normal" in2="shape" result="effect1_innerShadow_221_718"/>
</filter>
<filter id="filter1_i_221_718" x="300" y="46" width="11" height="15" filterUnits="userSpaceOnUse" color-interpolation-filters="sRGB">
<feFlood flood-opacity="0" result="BackgroundImageFix"/>
<feBlend mode="normal" in="SourceGraphic" in2="BackgroundImageFix" result="shape"/>
<feColorMatrix in="SourceAlpha" type="matrix" values="0 0 0 0 0 0 0 0 0 0 0 0 0 0 0 0 0 0 127 0" result="hardAlpha"/>
<feOffset dy="4"/>
<feGaussianBlur stdDeviation="2"/>
<feComposite in2="hardAlpha" operator="arithmetic" k2="-1" k3="1"/>
<feColorMatrix type="matrix" values="0 0 0 0 1 0 0 0 0 0 0 0 0 0 0 0 0 0 0.25 0"/>
<feBlend mode="normal" in2="shape" result="effect1_innerShadow_221_718"/>
</filter>
</defs>
</svg>
