<svg width="14" height="17" viewBox="0 0 14 17" fill="none" xmlns="http://www.w3.org/2000/svg">
<path d="M6.84727 4.31576C6.29041 4.31576 5.74605 4.4795 5.28304 4.78627C4.82003 5.09304 4.45915 5.52906 4.24605 6.0392C4.03295 6.54934 3.97719 7.11068 4.08583 7.65224C4.19447 8.1938 4.46262 8.69125 4.85638 9.08169C5.25014 9.47214 5.75183 9.73803 6.29799 9.84576C6.84415 9.95348 7.41026 9.89819 7.92473 9.68689C8.43921 9.47558 8.87894 9.11774 9.18831 8.65863C9.49769 8.19952 9.66282 7.65975 9.66282 7.10758C9.66282 6.36714 9.36618 5.65703 8.83816 5.13347C8.31015 4.6099 7.594 4.31576 6.84727 4.31576ZM6.84727 8.78267C6.51316 8.78267 6.18654 8.68443 5.90873 8.50037C5.63092 8.31631 5.4144 8.05469 5.28654 7.74861C5.15868 7.44253 5.12522 7.10572 5.19041 6.78079C5.25559 6.45585 5.41648 6.15738 5.65274 5.92311C5.88899 5.68885 6.19 5.52931 6.5177 5.46467C6.8454 5.40004 7.18507 5.43321 7.49375 5.56C7.80243 5.68678 8.06627 5.90148 8.2519 6.17695C8.43752 6.45242 8.5366 6.77628 8.5366 7.10758C8.5366 7.55184 8.35862 7.97791 8.04181 8.29205C7.725 8.60619 7.29531 8.78267 6.84727 8.78267ZM6.84727 0.965576C5.20504 0.967423 3.63061 1.61512 2.46937 2.76657C1.30814 3.91802 0.654939 5.47919 0.653076 7.10758C0.653076 9.29916 1.67441 11.622 3.6094 13.8254C4.47885 14.8211 5.45742 15.7177 6.527 16.4986C6.62169 16.5643 6.73449 16.5996 6.85009 16.5996C6.96569 16.5996 7.07849 16.5643 7.17317 16.4986C8.24079 15.7173 9.21745 14.8208 10.0851 13.8254C12.0173 11.622 13.0415 9.29916 13.0415 7.10758C13.0396 5.47919 12.3864 3.91802 11.2252 2.76657C10.0639 1.61512 8.4895 0.967423 6.84727 0.965576ZM6.84727 15.3434C5.68375 14.4361 1.77929 11.1034 1.77929 7.10758C1.77929 5.77479 2.31324 4.4966 3.26367 3.55417C4.2141 2.61175 5.50316 2.0823 6.84727 2.0823C8.19138 2.0823 9.48044 2.61175 10.4309 3.55417C11.3813 4.4966 11.9153 5.77479 11.9153 7.10758C11.9153 11.102 8.0108 14.4361 6.84727 15.3434Z" fill="#D79F9F"/>
</svg>
