<svg width="100" height="100" viewBox="0 0 100 100" fill="none" xmlns="http://www.w3.org/2000/svg">
<circle cx="50" cy="50" r="50" fill="white"/>
<path d="M30 65C30 62.3478 31.0536 59.8043 32.9289 57.9289C34.8043 56.0536 37.3478 55 40 55H60C62.6522 55 65.1957 56.0536 67.0711 57.9289C68.9464 59.8043 70 62.3478 70 65C70 66.3261 69.4732 67.5979 68.5355 68.5355C67.5979 69.4732 66.3261 70 65 70H35C33.6739 70 32.4021 69.4732 31.4645 68.5355C30.5268 67.5979 30 66.3261 30 65Z" stroke="#D79F9F" stroke-width="1.5" stroke-linejoin="round"/>
<path d="M50 45C54.1421 45 57.5 41.6421 57.5 37.5C57.5 33.3579 54.1421 30 50 30C45.8579 30 42.5 33.3579 42.5 37.5C42.5 41.6421 45.8579 45 50 45Z" stroke="#D79F9F" stroke-width="1.5"/>
</svg>
